<svg xmlns="http://www.w3.org/2000/svg" version="1.1" width="400" height="400">
<rect x="0" y="0" width="400" height="400" fill="#585c59" />
<g transform="scale(1.562500) translate(0.5 0.5)">
<polygon fill="#e1ffff" fill-opacity="0.501961" points="4,145 177,159 -16,60" />
<polygon fill="#001014" fill-opacity="0.501961" points="-16,3 258,138 256,-16" />
<polygon fill="#d4c4b5" fill-opacity="0.501961" points="136,240 170,95 -8,271" />
<polygon fill="#a39b88" fill-opacity="0.501961" points="69,151 184,201 157,10" />
<polygon fill="#07121e" fill-opacity="0.501961" points="190,-16 76,116 -16,23" />
<polygon fill="#e0ffff" fill-opacity="0.501961" points="79,108 -15,77 7,143" />
<polygon fill="#312b29" fill-opacity="0.501961" points="107,224 81,86 69,235" />
<polygon fill="#2d1805" fill-opacity="0.501961" points="271,168 245,248 121,229" />
<polygon fill="#e9ffff" fill-opacity="0.501961" points="106,242 44,225 -16,262" />
<polygon fill="#000001" fill-opacity="0.501961" points="32,233 72,201 -16,192" />
<polygon fill="#518a81" fill-opacity="0.501961" points="229,23 185,55 60,15" />
<polygon fill="#301b05" fill-opacity="0.501961" points="271,50 187,65 196,224" />
<polygon fill="#969b9d" fill-opacity="0.501961" points="68,203 18,184 147,54" />
<polygon fill="#a29b8d" fill-opacity="0.501961" points="230,202 179,271 156,247" />
<polygon fill="#00032d" fill-opacity="0.501961" points="-16,57 51,84 15,-16" />
<polygon fill="#041e2c" fill-opacity="0.501961" points="66,153 106,60 100,120" />
<polygon fill="#d4d7c7" fill-opacity="0.501961" points="157,71 101,105 119,60" />
<polygon fill="#000000" fill-opacity="0.501961" points="-16,117 18,165 -3,239" />
<polygon fill="#5a433a" fill-opacity="0.501961" points="116,124 23,187 125,155" />
<polygon fill="#d7e1e1" fill-opacity="0.501961" points="129,115 165,126 123,170" />
<polygon fill="#e7e8e3" fill-opacity="0.501961" points="133,193 103,202 108,241" />
<polygon fill="#23254a" fill-opacity="0.501961" points="22,123 25,155 45,149" />
<polygon fill="#302719" fill-opacity="0.501961" points="181,63 15,66 108,14" />
<polygon fill="#0a0c08" fill-opacity="0.501961" points="227,271 271,151 181,271" />
<polygon fill="#f9ffff" fill-opacity="0.501961" points="50,120 27,82 -15,121" />
<polygon fill="#65d8f2" fill-opacity="0.501961" points="80,103 73,143 28,91" />
<polygon fill="#785c42" fill-opacity="0.501961" points="174,65 228,183 131,232" />
<polygon fill="#ebfff9" fill-opacity="0.501961" points="92,151 92,117 78,154" />
<polygon fill="#d4feff" fill-opacity="0.501961" points="61,181 83,200 48,197" />
<polygon fill="#a8d1ce" fill-opacity="0.501961" points="42,34 54,18 75,11" />
<polygon fill="#a2edff" fill-opacity="0.501961" points="156,237 130,246 137,230" />
<polygon fill="#000936" fill-opacity="0.501961" points="271,35 80,-4 266,-16" />
<polygon fill="#3789ba" fill-opacity="0.501961" points="27,223 22,199 -16,256" />
<polygon fill="#0f171c" fill-opacity="0.501961" points="51,173 60,154 92,198" />
<polygon fill="#e2f3ce" fill-opacity="0.501961" points="52,162 67,151 37,125" />
<polygon fill="#001235" fill-opacity="0.501961" points="27,-3 213,-15 137,33" />
<polygon fill="#af9d9a" fill-opacity="0.501961" points="248,141 234,184 271,159" />
<polygon fill="#392916" fill-opacity="0.501961" points="52,210 101,205 94,176" />
<polygon fill="#ffffff" fill-opacity="0.501961" points="23,155 4,137 10,100" />
<polygon fill="#eff8fa" fill-opacity="0.501961" points="110,240 76,239 108,227" />
<polygon fill="#00001f" fill-opacity="0.501961" points="154,246 161,271 103,255" />
<polygon fill="#0f1816" fill-opacity="0.501961" points="271,121 203,141 250,-16" />
<polygon fill="#1e647f" fill-opacity="0.501961" points="-16,56 70,109 51,76" />
<polygon fill="#513c2d" fill-opacity="0.501961" points="254,131 183,77 187,236" />
<polygon fill="#deece6" fill-opacity="0.501961" points="127,79 106,89 108,120" />
<polygon fill="#d9cdd0" fill-opacity="0.501961" points="95,175 114,220 107,159" />
<polygon fill="#5d937c" fill-opacity="0.501961" points="178,18 129,37 214,54" />
<polygon fill="#c49696" fill-opacity="0.501961" points="23,207 40,194 39,151" />
<polygon fill="#613437" fill-opacity="0.501961" points="135,185 91,182 126,175" />
<polygon fill="#552c27" fill-opacity="0.501961" points="107,270 115,225 127,228" />
<polygon fill="#e0ffff" fill-opacity="0.501961" points="30,140 36,108 42,142" />
<polygon fill="#542616" fill-opacity="0.501961" points="105,211 84,234 55,230" />
<polygon fill="#6ad4ed" fill-opacity="0.501961" points="-16,56 -16,100 37,89" />
<polygon fill="#c8d9d9" fill-opacity="0.501961" points="-8,259 65,211 48,271" />
<polygon fill="#1c211b" fill-opacity="0.501961" points="150,106 140,114 166,117" />
<polygon fill="#322412" fill-opacity="0.501961" points="91,111 134,40 53,23" />
<polygon fill="#000000" fill-opacity="0.501961" points="29,234 53,215 28,208" />
<polygon fill="#acaca3" fill-opacity="0.501961" points="168,148 110,175 174,108" />
<polygon fill="#8e9f9e" fill-opacity="0.501961" points="82,198 60,199 86,164" />
<polygon fill="#c5cecc" fill-opacity="0.501961" points="135,99 149,90 164,104" />
<polygon fill="#c9fcff" fill-opacity="0.501961" points="61,116 68,150 77,119" />
<polygon fill="#7a452d" fill-opacity="0.501961" points="49,192 21,210 9,182" />
<polygon fill="#051738" fill-opacity="0.501961" points="76,-5 6,66 -16,-6" />
<polygon fill="#30332f" fill-opacity="0.501961" points="122,99 131,85 161,85" />
<polygon fill="#492542" fill-opacity="0.501961" points="3,143 8,172 41,183" />
<polygon fill="#094262" fill-opacity="0.501961" points="83,90 75,149 89,133" />
<polygon fill="#faffff" fill-opacity="0.501961" points="44,160 29,172 37,174" />
<polygon fill="#19101d" fill-opacity="0.501961" points="48,153 47,182 39,182" />
<polygon fill="#87a59f" fill-opacity="0.501961" points="65,12 87,16 49,22" />
<polygon fill="#554933" fill-opacity="0.501961" points="271,210 232,218 197,266" />
<polygon fill="#938977" fill-opacity="0.501961" points="135,56 178,81 108,76" />
<polygon fill="#3d3725" fill-opacity="0.501961" points="191,33 159,90 183,116" />
<polygon fill="#375f73" fill-opacity="0.501961" points="58,121 66,137 48,132" />
<polygon fill="#f1ffe4" fill-opacity="0.501961" points="56,157 45,140 51,167" />
<polygon fill="#29192c" fill-opacity="0.501961" points="31,155 25,139 47,148" />
<polygon fill="#1a1613" fill-opacity="0.501961" points="96,187 64,193 104,197" />
<polygon fill="#bbb9a6" fill-opacity="0.501961" points="92,208 135,218 147,181" />
<polygon fill="#000000" fill-opacity="0.501961" points="3,151 12,195 -16,242" />
<polygon fill="#ffffff" fill-opacity="0.501961" points="4,116 41,120 29,85" />
<polygon fill="#3e2a1d" fill-opacity="0.501961" points="146,229 230,180 166,246" />
<polygon fill="#292c25" fill-opacity="0.501961" points="92,186 72,163 80,150" />
<polygon fill="#bac4bf" fill-opacity="0.501961" points="152,237 161,261 163,247" />
<polygon fill="#887a64" fill-opacity="0.501961" points="175,206 134,215 175,115" />
<polygon fill="#4d7865" fill-opacity="0.501961" points="158,21 226,25 204,57" />
<polygon fill="#7d6b5d" fill-opacity="0.501961" points="207,225 234,166 240,190" />
<polygon fill="#e3bdbb" fill-opacity="0.501961" points="53,187 14,178 34,189" />
<polygon fill="#88c8e4" fill-opacity="0.501961" points="138,247 153,232 128,233" />
<polygon fill="#00051b" fill-opacity="0.501961" points="89,107 101,114 97,126" />
<polygon fill="#615643" fill-opacity="0.501961" points="196,167 157,63 203,97" />
<polygon fill="#5c9fcc" fill-opacity="0.501961" points="18,136 31,125 21,119" />
<polygon fill="#31372a" fill-opacity="0.501961" points="62,100 38,19 109,110" />
<polygon fill="#dbffff" fill-opacity="0.501961" points="74,188 53,195 59,184" />
<polygon fill="#958b7f" fill-opacity="0.501961" points="73,169 64,160 74,131" />
<polygon fill="#07304d" fill-opacity="0.501961" points="21,224 -6,253 31,231" />
<polygon fill="#4f1f1a" fill-opacity="0.501961" points="22,191 14,181 30,181" />
<polygon fill="#3d9cbf" fill-opacity="0.501961" points="32,83 34,99 53,84" />
<polygon fill="#0e1e39" fill-opacity="0.501961" points="29,-16 50,83 16,75" />
<polygon fill="#2a3829" fill-opacity="0.501961" points="229,68 178,77 103,30" />
<polygon fill="#232729" fill-opacity="0.501961" points="80,183 56,181 61,155" />
<polygon fill="#18100a" fill-opacity="0.501961" points="241,124 221,84 155,55" />
</g>
</svg>