<svg xmlns="http://www.w3.org/2000/svg" version="1.1" width="400" height="400">
<rect x="0" y="0" width="400" height="400" fill="#aa90a6" />
<g transform="scale(1.562500) translate(0.5 0.5)">
<polygon fill="#ffffff" fill-opacity="0.501961" points="158,140 271,195 252,-16" />
<polygon fill="#ffffff" fill-opacity="0.501961" points="110,183 -16,99 4,271" />
<polygon fill="#26202c" fill-opacity="0.501961" points="160,6 3,128 -16,-16" />
<polygon fill="#330f3a" fill-opacity="0.501961" points="108,166 271,257 56,257" />
<polygon fill="#ffffff" fill-opacity="0.501961" points="75,124 -16,155 37,271" />
<polygon fill="#fffcff" fill-opacity="0.501961" points="254,216 153,-13 271,68" />
<polygon fill="#8e5d6f" fill-opacity="0.501961" points="37,81 145,19 172,271" />
<polygon fill="#23143d" fill-opacity="0.501961" points="19,271 165,252 106,203" />
<polygon fill="#ffffff" fill-opacity="0.501961" points="84,224 77,143 56,237" />
<polygon fill="#ffffff" fill-opacity="0.501961" points="-16,149 77,127 8,271" />
<polygon fill="#a06299" fill-opacity="0.501961" points="248,271 271,184 76,169" />
<polygon fill="#fff0ff" fill-opacity="0.501961" points="172,168 261,-11 271,146" />
<polygon fill="#df95d4" fill-opacity="0.501961" points="206,-16 149,180 271,12" />
<polygon fill="#5f5c6c" fill-opacity="0.501961" points="69,148 47,240 72,195" />
<polygon fill="#ffffff" fill-opacity="0.501961" points="58,223 97,186 74,151" />
<polygon fill="#fffffe" fill-opacity="0.501961" points="140,21 197,38 174,-9" />
<polygon fill="#ffffff" fill-opacity="0.501961" points="38,271 -16,247 73,129" />
<polygon fill="#c0bab7" fill-opacity="0.501961" points="86,65 -16,98 39,97" />
<polygon fill="#d2e1cb" fill-opacity="0.501961" points="65,130 -16,125 68,99" />
<polygon fill="#61495b" fill-opacity="0.501961" points="97,195 103,109 68,109" />
<polygon fill="#503f58" fill-opacity="0.501961" points="156,33 -16,91 51,-9" />
<polygon fill="#382f44" fill-opacity="0.501961" points="74,81 46,108 -12,114" />
<polygon fill="#934da2" fill-opacity="0.501961" points="203,237 226,163 198,150" />
<polygon fill="#ffffff" fill-opacity="0.501961" points="194,144 271,48 271,191" />
<polygon fill="#b17d97" fill-opacity="0.501961" points="182,104 113,141 162,228" />
<polygon fill="#ffffff" fill-opacity="0.501961" points="56,237 88,204 78,140" />
<polygon fill="#341b3c" fill-opacity="0.501961" points="128,240 47,271 48,237" />
<polygon fill="#e997ca" fill-opacity="0.501961" points="133,54 221,100 204,137" />
<polygon fill="#af80b8" fill-opacity="0.501961" points="189,-12 235,45 195,62" />
<polygon fill="#ce7fe2" fill-opacity="0.501961" points="198,156 269,240 271,191" />
<polygon fill="#858d8b" fill-opacity="0.501961" points="-8,148 65,126 21,125" />
<polygon fill="#ffffff" fill-opacity="0.501961" points="196,87 183,38 206,70" />
<polygon fill="#936e80" fill-opacity="0.501961" points="271,239 118,215 74,142" />
<polygon fill="#fed3f7" fill-opacity="0.501961" points="258,31 255,6 175,37" />
<polygon fill="#865887" fill-opacity="0.501961" points="174,31 187,62 122,24" />
<polygon fill="#3c2952" fill-opacity="0.501961" points="101,189 79,219 121,270" />
<polygon fill="#ffffff" fill-opacity="0.501961" points="58,233 83,226 62,208" />
<polygon fill="#ffffff" fill-opacity="0.501961" points="37,271 -16,212 71,121" />
<polygon fill="#896886" fill-opacity="0.501961" points="133,32 167,4 105,-16" />
<polygon fill="#fffbff" fill-opacity="0.501961" points="271,38 207,60 242,190" />
<polygon fill="#9d9a92" fill-opacity="0.501961" points="58,-12 -16,-4 -2,18" />
<polygon fill="#40415b" fill-opacity="0.501961" points="72,141 73,164 62,177" />
<polygon fill="#4f4355" fill-opacity="0.501961" points="46,242 56,202 57,227" />
<polygon fill="#9a6f74" fill-opacity="0.501961" points="48,68 149,33 70,113" />
<polygon fill="#ffffff" fill-opacity="0.501961" points="212,132 182,177 182,132" />
<polygon fill="#ffffff" fill-opacity="0.501961" points="73,126 3,271 -16,150" />
<polygon fill="#d7d1c8" fill-opacity="0.501961" points="-16,125 56,103 12,138" />
<polygon fill="#4c3960" fill-opacity="0.501961" points="93,188 82,229 194,271" />
<polygon fill="#976d95" fill-opacity="0.501961" points="229,-16 163,-16 200,27" />
<polygon fill="#6d5380" fill-opacity="0.501961" points="150,86 139,129 114,103" />
<polygon fill="#ffffff" fill-opacity="0.501961" points="155,-14 185,16 195,68" />
<polygon fill="#ffffff" fill-opacity="0.501961" points="63,200 84,213 94,177" />
<polygon fill="#b88197" fill-opacity="0.501961" points="106,110 131,34 184,55" />
<polygon fill="#b4ada8" fill-opacity="0.501961" points="-15,97 5,105 48,79" />
<polygon fill="#584c6a" fill-opacity="0.501961" points="108,132 60,125 96,105" />
<polygon fill="#45364e" fill-opacity="0.501961" points="58,189 59,205 66,181" />
<polygon fill="#56495a" fill-opacity="0.501961" points="34,92 -8,121 78,95" />
<polygon fill="#9c689d" fill-opacity="0.501961" points="271,268 167,193 204,151" />
<polygon fill="#c48ea9" fill-opacity="0.501961" points="164,75 185,181 154,209" />
<polygon fill="#47444f" fill-opacity="0.501961" points="16,23 46,78 -11,92" />
<polygon fill="#9f7a7e" fill-opacity="0.501961" points="80,161 112,197 72,113" />
<polygon fill="#6d5274" fill-opacity="0.501961" points="116,263 215,271 214,204" />
<polygon fill="#fcbeee" fill-opacity="0.501961" points="177,143 253,58 207,75" />
<polygon fill="#caa8ac" fill-opacity="0.501961" points="167,10 142,25 161,-16" />
<polygon fill="#987a82" fill-opacity="0.501961" points="66,99 106,114 37,48" />
<polygon fill="#ffffff" fill-opacity="0.501961" points="253,179 197,142 269,67" />
<polygon fill="#ffffff" fill-opacity="0.501961" points="91,178 56,234 73,158" />
<polygon fill="#58405d" fill-opacity="0.501961" points="57,73 58,19 165,-16" />
<polygon fill="#9c7986" fill-opacity="0.501961" points="208,189 102,192 131,222" />
<polygon fill="#fffffd" fill-opacity="0.501961" points="159,16 193,19 146,30" />
<polygon fill="#ff99dd" fill-opacity="0.501961" points="216,120 197,138 204,72" />
<polygon fill="#c299b6" fill-opacity="0.501961" points="168,114 154,48 199,90" />
<polygon fill="#908c8c" fill-opacity="0.501961" points="35,116 6,123 23,113" />
<polygon fill="#e997f2" fill-opacity="0.501961" points="271,38 216,54 235,25" />
<polygon fill="#432949" fill-opacity="0.501961" points="63,233 29,271 112,230" />
<polygon fill="#e9e4dc" fill-opacity="0.501961" points="21,134 56,111 -10,130" />
<polygon fill="#a972b5" fill-opacity="0.501961" points="197,58 190,45 232,37" />
<polygon fill="#6f5a7c" fill-opacity="0.501961" points="154,35 107,37 114,-16" />
<polygon fill="#6a6872" fill-opacity="0.501961" points="-4,141 16,142 17,136" />
<polygon fill="#805072" fill-opacity="0.501961" points="131,198 161,175 99,190" />
<polygon fill="#ffffff" fill-opacity="0.501961" points="66,112 67,108 54,112" />
<polygon fill="#b1abac" fill-opacity="0.501961" points="4,133 79,124 44,116" />
<polygon fill="#f4eee6" fill-opacity="0.501961" points="11,116 28,115 8,122" />
<polygon fill="#da94ec" fill-opacity="0.501961" points="234,184 262,212 267,177" />
<polygon fill="#614f61" fill-opacity="0.501961" points="52,219 55,235 61,201" />
<polygon fill="#5a4a60" fill-opacity="0.501961" points="61,185 69,161 69,176" />
<polygon fill="#95949d" fill-opacity="0.501961" points="60,69 9,103 59,88" />
<polygon fill="#717076" fill-opacity="0.501961" points="-16,28 119,-16 46,-13" />
<polygon fill="#ba78c9" fill-opacity="0.501961" points="234,172 223,205 205,150" />
<polygon fill="#ffffff" fill-opacity="0.501961" points="42,255 -16,255 65,164" />
<polygon fill="#ae7aa0" fill-opacity="0.501961" points="171,120 152,178 143,45" />
<polygon fill="#574869" fill-opacity="0.501961" points="129,230 165,211 145,271" />
<polygon fill="#deacc9" fill-opacity="0.501961" points="186,174 168,158 178,121" />
<polygon fill="#986e7d" fill-opacity="0.501961" points="73,134 104,197 118,136" />
<polygon fill="#452e55" fill-opacity="0.501961" points="80,220 143,271 97,191" />
<polygon fill="#d0aecc" fill-opacity="0.501961" points="237,35 191,23 187,45" />
<polygon fill="#3c3051" fill-opacity="0.501961" points="71,112 95,115 70,121" />
<polygon fill="#7e5e85" fill-opacity="0.501961" points="125,95 165,112 122,127" />
<polygon fill="#906490" fill-opacity="0.501961" points="271,271 165,205 207,188" />
<polygon fill="#ae70ab" fill-opacity="0.501961" points="264,222 201,160 265,271" />
</g>
</svg>