<svg xmlns="http://www.w3.org/2000/svg" version="1.1" width="400" height="400">
<rect x="0" y="0" width="400" height="400" fill="#352524" />
<g transform="scale(1.562500) translate(0.5 0.5)">
<polygon fill="#ffe5d8" fill-opacity="0.501961" points="94,21 26,17 118,213" />
<polygon fill="#000000" fill-opacity="0.501961" points="221,271 62,-16 271,1" />
<polygon fill="#9e5b5b" fill-opacity="0.501961" points="203,271 10,160 129,88" />
<polygon fill="#ffe8d7" fill-opacity="0.501961" points="61,3 101,85 30,69" />
<polygon fill="#000000" fill-opacity="0.501961" points="1,271 0,-16 49,95" />
<polygon fill="#000f33" fill-opacity="0.501961" points="87,142 67,201 182,89" />
<polygon fill="#ff8667" fill-opacity="0.501961" points="19,175 75,118 84,171" />
<polygon fill="#9a5150" fill-opacity="0.501961" points="130,249 121,153 35,214" />
<polygon fill="#000000" fill-opacity="0.501961" points="235,271 61,-16 213,-6" />
<polygon fill="#000c30" fill-opacity="0.501961" points="132,210 181,140 58,227" />
<polygon fill="#ecd3b5" fill-opacity="0.501961" points="148,178 186,245 169,176" />
<polygon fill="#000000" fill-opacity="0.501961" points="58,271 -16,252 4,106" />
<polygon fill="#000000" fill-opacity="0.501961" points="38,-16 -16,3 16,197" />
<polygon fill="#8c5023" fill-opacity="0.501961" points="247,19 214,10 242,78" />
<polygon fill="#15224e" fill-opacity="0.501961" points="59,99 97,115 31,131" />
<polygon fill="#fff5d9" fill-opacity="0.501961" points="57,96 96,112 97,92" />
<polygon fill="#000000" fill-opacity="0.501961" points="128,-5 270,88 94,88" />
<polygon fill="#03060e" fill-opacity="0.501961" points="138,239 181,258 162,204" />
<polygon fill="#4a5b69" fill-opacity="0.501961" points="234,223 222,155 271,217" />
<polygon fill="#d66244" fill-opacity="0.501961" points="51,218 129,179 148,129" />
<polygon fill="#ffcdb8" fill-opacity="0.501961" points="70,12 103,62 33,30" />
<polygon fill="#d6593c" fill-opacity="0.501961" points="131,239 162,193 89,231" />
<polygon fill="#000000" fill-opacity="0.501961" points="4,-15 -16,54 86,-6" />
<polygon fill="#002153" fill-opacity="0.501961" points="85,172 86,197 10,182" />
<polygon fill="#000000" fill-opacity="0.501961" points="201,266 226,152 150,128" />
<polygon fill="#c5654f" fill-opacity="0.501961" points="21,152 121,122 35,179" />
<polygon fill="#120e1b" fill-opacity="0.501961" points="134,172 153,146 157,195" />
<polygon fill="#0f2e5e" fill-opacity="0.501961" points="25,145 71,144 37,123" />
<polygon fill="#f3c4bf" fill-opacity="0.501961" points="102,78 42,74 95,38" />
<polygon fill="#000000" fill-opacity="0.501961" points="-4,99 60,269 -2,260" />
<polygon fill="#000000" fill-opacity="0.501961" points="253,0 111,59 60,-4" />
<polygon fill="#ffefdc" fill-opacity="0.501961" points="41,62 41,73 29,57" />
<polygon fill="#d86549" fill-opacity="0.501961" points="95,203 39,222 37,206" />
<polygon fill="#c6ac8b" fill-opacity="0.501961" points="181,255 202,270 172,212" />
<polygon fill="#0e0600" fill-opacity="0.501961" points="223,151 262,-10 268,204" />
<polygon fill="#6c4e3d" fill-opacity="0.501961" points="31,17 33,54 61,87" />
<polygon fill="#000000" fill-opacity="0.501961" points="-2,165 55,97 -16,-4" />
<polygon fill="#9e5241" fill-opacity="0.501961" points="127,92 145,109 62,141" />
<polygon fill="#001433" fill-opacity="0.501961" points="163,229 128,271 92,249" />
<polygon fill="#a94426" fill-opacity="0.501961" points="140,271 173,221 170,264" />
<polygon fill="#000100" fill-opacity="0.501961" points="175,70 200,269 257,271" />
<polygon fill="#f0ccc4" fill-opacity="0.501961" points="94,84 50,13 58,80" />
<polygon fill="#142643" fill-opacity="0.501961" points="113,220 83,201 167,168" />
<polygon fill="#ae5d51" fill-opacity="0.501961" points="96,215 49,232 69,235" />
<polygon fill="#b48838" fill-opacity="0.501961" points="240,66 254,51 229,59" />
<polygon fill="#ba533e" fill-opacity="0.501961" points="94,246 160,217 94,222" />
<polygon fill="#797d83" fill-opacity="0.501961" points="83,84 120,138 107,92" />
<polygon fill="#14233e" fill-opacity="0.501961" points="151,96 74,158 118,157" />
<polygon fill="#3d364c" fill-opacity="0.501961" points="50,97 34,139 92,113" />
<polygon fill="#000000" fill-opacity="0.501961" points="231,49 108,-16 99,87" />
<polygon fill="#bd8c7c" fill-opacity="0.501961" points="46,57 71,43 35,33" />
<polygon fill="#f2dacb" fill-opacity="0.501961" points="161,200 155,172 173,203" />
<polygon fill="#192a56" fill-opacity="0.501961" points="36,207 33,176 79,196" />
<polygon fill="#ecae80" fill-opacity="0.501961" points="45,20 58,10 78,20" />
<polygon fill="#ae594e" fill-opacity="0.501961" points="55,244 85,232 72,245" />
<polygon fill="#c8583c" fill-opacity="0.501961" points="88,114 52,132 111,129" />
<polygon fill="#d16b51" fill-opacity="0.501961" points="114,159 85,176 91,200" />
<polygon fill="#000000" fill-opacity="0.501961" points="128,-16 73,33 183,-1" />
<polygon fill="#dcafa8" fill-opacity="0.501961" points="40,57 101,56 90,34" />
<polygon fill="#01193b" fill-opacity="0.501961" points="52,252 97,230 80,269" />
<polygon fill="#000000" fill-opacity="0.501961" points="-16,37 56,84 7,178" />
<polygon fill="#b3735c" fill-opacity="0.501961" points="52,97 48,111 74,86" />
<polygon fill="#c5afa0" fill-opacity="0.501961" points="167,203 187,246 170,226" />
<polygon fill="#923b2c" fill-opacity="0.501961" points="159,201 155,173 126,239" />
<polygon fill="#000000" fill-opacity="0.501961" points="262,114 234,-16 271,-9" />
<polygon fill="#000000" fill-opacity="0.501961" points="149,148 194,-16 205,240" />
<polygon fill="#e8c2ad" fill-opacity="0.501961" points="55,90 111,113 92,93" />
<polygon fill="#000000" fill-opacity="0.501961" points="37,-16 89,8 -16,11" />
<polygon fill="#060b0a" fill-opacity="0.501961" points="28,28 19,38 46,67" />
<polygon fill="#715647" fill-opacity="0.501961" points="221,162 239,196 234,161" />
<polygon fill="#d0725d" fill-opacity="0.501961" points="79,170 86,115 42,176" />
<polygon fill="#05213e" fill-opacity="0.501961" points="102,112 85,114 110,119" />
<polygon fill="#3f3939" fill-opacity="0.501961" points="108,92 73,89 98,84" />
<polygon fill="#273943" fill-opacity="0.501961" points="230,205 248,271 271,171" />
<polygon fill="#1c1006" fill-opacity="0.501961" points="195,133 226,39 271,194" />
<polygon fill="#1f1e17" fill-opacity="0.501961" points="183,242 168,271 173,231" />
<polygon fill="#000000" fill-opacity="0.501961" points="65,271 -9,260 1,143" />
<polygon fill="#c1624e" fill-opacity="0.501961" points="43,208 106,188 64,218" />
<polygon fill="#dbcdb7" fill-opacity="0.501961" points="88,255 90,251 100,261" />
<polygon fill="#072448" fill-opacity="0.501961" points="86,214 38,223 59,229" />
<polygon fill="#1c150e" fill-opacity="0.501961" points="165,127 134,136 141,85" />
<polygon fill="#a94f3c" fill-opacity="0.501961" points="27,178 49,150 20,148" />
<polygon fill="#041a34" fill-opacity="0.501961" points="92,228 97,216 69,235" />
<polygon fill="#543523" fill-opacity="0.501961" points="54,12 39,26 38,17" />
<polygon fill="#001227" fill-opacity="0.501961" points="161,203 168,226 147,234" />
<polygon fill="#b38785" fill-opacity="0.501961" points="74,42 93,62 74,27" />
<polygon fill="#5e331d" fill-opacity="0.501961" points="232,3 252,61 217,37" />
<polygon fill="#736961" fill-opacity="0.501961" points="45,66 54,84 76,93" />
<polygon fill="#a44a37" fill-opacity="0.501961" points="118,188 126,141 151,145" />
<polygon fill="#000000" fill-opacity="0.501961" points="-10,68 47,77 61,100" />
<polygon fill="#141d2d" fill-opacity="0.501961" points="142,161 172,173 127,179" />
<polygon fill="#ad513f" fill-opacity="0.501961" points="98,220 95,248 158,212" />
<polygon fill="#6b5b5f" fill-opacity="0.501961" points="64,39 47,51 54,39" />
<polygon fill="#222b49" fill-opacity="0.501961" points="60,98 82,111 40,144" />
<polygon fill="#000000" fill-opacity="0.501961" points="20,174 -16,-8 32,20" />
<polygon fill="#fbe0cd" fill-opacity="0.501961" points="73,33 49,44 48,20" />
<polygon fill="#f4ded3" fill-opacity="0.501961" points="99,79 61,70 74,85" />
<polygon fill="#5c6c7f" fill-opacity="0.501961" points="99,86 120,112 111,114" />
<polygon fill="#282e4c" fill-opacity="0.501961" points="133,139 94,137 78,181" />
<polygon fill="#130c00" fill-opacity="0.501961" points="195,208 256,260 187,242" />
</g>
</svg>