<svg xmlns="http://www.w3.org/2000/svg" version="1.1" width="400" height="400">
<rect x="0" y="0" width="400" height="400" fill="#595378" />
<g transform="scale(1.562500) translate(0.5 0.5)">
<polygon fill="#bfc0ff" fill-opacity="0.501961" points="145,271 41,-16 -16,252" />
<polygon fill="#010000" fill-opacity="0.501961" points="260,271 103,201 254,-16" />
<polygon fill="#000000" fill-opacity="0.501961" points="104,97 224,74 258,210" />
<polygon fill="#9999df" fill-opacity="0.501961" points="42,-16 123,206 105,-8" />
<polygon fill="#18142f" fill-opacity="0.501961" points="155,-16 252,2 109,122" />
<polygon fill="#ffffff" fill-opacity="0.501961" points="-6,89 -16,132 39,93" />
<polygon fill="#c8c4f6" fill-opacity="0.501961" points="5,198 116,237 -9,271" />
<polygon fill="#363263" fill-opacity="0.501961" points="54,198 49,149 -16,193" />
<polygon fill="#ff0045" fill-opacity="0.501961" points="223,66 213,83 163,64" />
<polygon fill="#130f11" fill-opacity="0.501961" points="125,271 271,251 158,226" />
<polygon fill="#5f5777" fill-opacity="0.501961" points="215,251 227,176 121,218" />
<polygon fill="#cfcbfc" fill-opacity="0.501961" points="20,41 40,69 126,52" />
<polygon fill="#f3efff" fill-opacity="0.501961" points="64,212 109,181 4,212" />
<polygon fill="#59588e" fill-opacity="0.501961" points="190,36 12,82 96,99" />
<polygon fill="#ebe7ff" fill-opacity="0.501961" points="-16,160 37,135 62,152" />
<polygon fill="#3b3868" fill-opacity="0.501961" points="19,144 59,107 -16,119" />
<polygon fill="#46447b" fill-opacity="0.501961" points="51,211 133,180 127,217" />
<polygon fill="#000000" fill-opacity="0.501961" points="15,39 7,89 21,66" />
<polygon fill="#514b75" fill-opacity="0.501961" points="187,48 230,71 269,-16" />
<polygon fill="#000004" fill-opacity="0.501961" points="139,116 248,165 129,64" />
<polygon fill="#674159" fill-opacity="0.501961" points="105,99 125,196 164,131" />
<polygon fill="#0f0610" fill-opacity="0.501961" points="133,175 250,53 154,230" />
<polygon fill="#9d9cdc" fill-opacity="0.501961" points="-11,55 1,119 16,1" />
<polygon fill="#b3b3ea" fill-opacity="0.501961" points="53,64 96,4 67,-16" />
<polygon fill="#8c8ac8" fill-opacity="0.501961" points="-16,215 133,271 148,215" />
<polygon fill="#6e6eae" fill-opacity="0.501961" points="110,21 200,92 31,20" />
<polygon fill="#2e2d5c" fill-opacity="0.501961" points="216,132 204,94 127,60" />
<polygon fill="#f1eaff" fill-opacity="0.501961" points="17,86 -16,114 37,98" />
<polygon fill="#413b67" fill-opacity="0.501961" points="36,163 -16,170 -7,212" />
<polygon fill="#000300" fill-opacity="0.501961" points="253,173 271,237 220,271" />
<polygon fill="#d3d1ff" fill-opacity="0.501961" points="1,169 -9,126 7,140" />
<polygon fill="#66649c" fill-opacity="0.501961" points="60,69 132,40 97,163" />
<polygon fill="#615a74" fill-opacity="0.501961" points="217,177 250,213 157,206" />
<polygon fill="#7d7db9" fill-opacity="0.501961" points="19,71 65,0 26,-16" />
<polygon fill="#f0ecff" fill-opacity="0.501961" points="-16,259 79,258 31,242" />
<polygon fill="#1b192a" fill-opacity="0.501961" points="143,47 138,16 242,-6" />
<polygon fill="#4f0000" fill-opacity="0.501961" points="225,70 191,79 241,115" />
<polygon fill="#020100" fill-opacity="0.501961" points="153,271 125,271 176,216" />
<polygon fill="#000000" fill-opacity="0.501961" points="207,181 271,203 251,176" />
<polygon fill="#504671" fill-opacity="0.501961" points="265,65 271,145 228,82" />
<polygon fill="#9190cc" fill-opacity="0.501961" points="91,199 109,143 126,181" />
<polygon fill="#9492cb" fill-opacity="0.501961" points="97,68 112,99 128,68" />
<polygon fill="#221e44" fill-opacity="0.501961" points="146,131 136,57 109,108" />
<polygon fill="#3f3b65" fill-opacity="0.501961" points="73,74 110,57 74,99" />
<polygon fill="#000000" fill-opacity="0.501961" points="212,179 174,184 164,200" />
<polygon fill="#b6b4ff" fill-opacity="0.501961" points="139,9 125,-7 149,7" />
<polygon fill="#292a55" fill-opacity="0.501961" points="139,20 122,-2 94,18" />
<polygon fill="#060c1d" fill-opacity="0.501961" points="22,45 14,13 10,81" />
<polygon fill="#452d40" fill-opacity="0.501961" points="131,177 108,136 160,157" />
<polygon fill="#ebe6ff" fill-opacity="0.501961" points="46,205 97,180 96,196" />
<polygon fill="#383147" fill-opacity="0.501961" points="155,59 210,65 224,-16" />
<polygon fill="#ded8ff" fill-opacity="0.501961" points="72,118 73,129 47,135" />
<polygon fill="#000008" fill-opacity="0.501961" points="18,82 6,91 14,53" />
<polygon fill="#ba8eb9" fill-opacity="0.501961" points="106,145 120,108 121,129" />
<polygon fill="#efe9f0" fill-opacity="0.501961" points="146,67 136,69 144,61" />
<polygon fill="#26252f" fill-opacity="0.501961" points="111,207 154,214 223,143" />
<polygon fill="#494066" fill-opacity="0.501961" points="238,139 251,113 219,121" />
<polygon fill="#2d2b48" fill-opacity="0.501961" points="24,137 -3,130 26,118" />
<polygon fill="#7878b5" fill-opacity="0.501961" points="153,228 115,260 134,207" />
<polygon fill="#7472ae" fill-opacity="0.501961" points="57,185 127,176 35,152" />
<polygon fill="#9391d5" fill-opacity="0.501961" points="23,104 13,124 -16,114" />
<polygon fill="#1c1f3d" fill-opacity="0.501961" points="-2,98 4,51 -16,42" />
<polygon fill="#615775" fill-opacity="0.501961" points="168,271 171,201 203,184" />
<polygon fill="#cb0d52" fill-opacity="0.501961" points="165,66 204,81 220,64" />
<polygon fill="#7e6009" fill-opacity="0.501961" points="193,109 207,113 180,86" />
<polygon fill="#d6d3f7" fill-opacity="0.501961" points="30,48 58,69 79,52" />
<polygon fill="#000000" fill-opacity="0.501961" points="151,68 181,85 164,81" />
<polygon fill="#9491cd" fill-opacity="0.501961" points="64,53 114,37 122,57" />
<polygon fill="#625f94" fill-opacity="0.501961" points="35,206 -7,180 60,172" />
<polygon fill="#494056" fill-opacity="0.501961" points="151,187 188,168 234,173" />
<polygon fill="#302b3f" fill-opacity="0.501961" points="201,200 252,214 166,271" />
<polygon fill="#00020f" fill-opacity="0.501961" points="208,104 222,139 118,210" />
<polygon fill="#865e7f" fill-opacity="0.501961" points="116,130 154,134 144,157" />
<polygon fill="#5e5c92" fill-opacity="0.501961" points="76,202 114,187 108,226" />
<polygon fill="#8483c2" fill-opacity="0.501961" points="85,196 74,221 18,224" />
<polygon fill="#7875b0" fill-opacity="0.501961" points="21,-16 1,12 9,54" />
<polygon fill="#6665a1" fill-opacity="0.501961" points="97,102 82,139 47,156" />
<polygon fill="#7c7cb3" fill-opacity="0.501961" points="24,58 80,-2 19,34" />
<polygon fill="#8583f4" fill-opacity="0.501961" points="150,67 168,67 184,79" />
<polygon fill="#474674" fill-opacity="0.501961" points="102,22 126,62 148,63" />
<polygon fill="#e6e0ff" fill-opacity="0.501961" points="20,153 61,146 29,139" />
<polygon fill="#7d7bb6" fill-opacity="0.501961" points="51,103 121,93 12,146" />
<polygon fill="#b0abe6" fill-opacity="0.501961" points="71,89 55,120 56,89" />
<polygon fill="#313159" fill-opacity="0.501961" points="17,27 33,23 14,-5" />
<polygon fill="#d2cdf5" fill-opacity="0.501961" points="46,266 49,220 37,230" />
<polygon fill="#b8b4ea" fill-opacity="0.501961" points="131,230 103,230 145,218" />
<polygon fill="#49446a" fill-opacity="0.501961" points="222,5 271,13 225,68" />
<polygon fill="#9491cf" fill-opacity="0.501961" points="100,175 57,165 92,121" />
<polygon fill="#40406e" fill-opacity="0.501961" points="136,248 134,240 119,253" />
<polygon fill="#6a679e" fill-opacity="0.501961" points="99,86 22,62 15,87" />
<polygon fill="#00001f" fill-opacity="0.501961" points="116,127 111,115 114,100" />
<polygon fill="#867a9b" fill-opacity="0.501961" points="166,220 158,227 156,242" />
<polygon fill="#010000" fill-opacity="0.501961" points="158,208 192,182 150,195" />
<polygon fill="#565587" fill-opacity="0.501961" points="110,49 86,6 120,15" />
<polygon fill="#01070a" fill-opacity="0.501961" points="128,67 124,82 142,60" />
<polygon fill="#796d98" fill-opacity="0.501961" points="182,193 217,198 203,184" />
<polygon fill="#17010c" fill-opacity="0.501961" points="176,71 224,115 264,115" />
<polygon fill="#322a39" fill-opacity="0.501961" points="167,252 170,217 185,214" />
<polygon fill="#4d4d81" fill-opacity="0.501961" points="100,169 108,181 127,173" />
<polygon fill="#5f5d92" fill-opacity="0.501961" points="65,119 16,120 21,102" />
</g>
</svg>