<svg xmlns="http://www.w3.org/2000/svg" version="1.1" width="1024" height="1024">
<rect x="0" y="0" width="1024" height="1024" fill="#585c59" />
<g transform="scale(4.000000) translate(0.5 0.5)">
<polygon fill="#e1ffff" fill-opacity="0.501961" points="5,145 184,158 -16,62" />
<polygon fill="#000418" fill-opacity="0.501961" points="39,98 271,-3 -16,0" />
<polygon fill="#b8aea0" fill-opacity="0.501961" points="148,235 160,9 7,271" />
<polygon fill="#181203" fill-opacity="0.501961" points="271,-9 233,271 163,59" />
<polygon fill="#f7ffff" fill-opacity="0.501961" points="45,226 -16,262 114,242" />
<polygon fill="#d6ffff" fill-opacity="0.501961" points="76,115 10,72 -16,148" />
<polygon fill="#403c3b" fill-opacity="0.501961" points="99,86 97,233 24,229" />
<polygon fill="#afa495" fill-opacity="0.501961" points="194,123 110,60 96,255" />
<polygon fill="#0f0f06" fill-opacity="0.501961" points="124,52 77,145 82,29" />
<polygon fill="#382514" fill-opacity="0.501961" points="130,227 243,262 271,167" />
<polygon fill="#c0b0ae" fill-opacity="0.501961" points="19,193 52,143 71,199" />
<polygon fill="#140b0e" fill-opacity="0.501961" points="49,224 -1,213 1,137" />
<polygon fill="#4a7562" fill-opacity="0.501961" points="129,104 139,19 234,24" />
<polygon fill="#7c644f" fill-opacity="0.501961" points="179,271 149,103 270,146" />
<polygon fill="#d3e7e5" fill-opacity="0.501961" points="69,207 -16,265 48,264" />
<polygon fill="#634b3b" fill-opacity="0.501961" points="119,159 133,84 90,155" />
<polygon fill="#011012" fill-opacity="0.501961" points="271,142 253,-16 191,85" />
<polygon fill="#000000" fill-opacity="0.501961" points="24,237 72,202 31,197" />
<polygon fill="#1d1506" fill-opacity="0.501961" points="233,100 182,51 94,36" />
<polygon fill="#00062c" fill-opacity="0.501961" points="-16,61 18,-16 49,75" />
<polygon fill="#8dc3c9" fill-opacity="0.501961" points="40,79 50,165 103,147" />
<polygon fill="#d1dad8" fill-opacity="0.501961" points="129,116 170,124 126,174" />
<polygon fill="#d6d9ce" fill-opacity="0.501961" points="122,66 160,73 101,100" />
<polygon fill="#ffffff" fill-opacity="0.501961" points="5,92 47,103 6,147" />
<polygon fill="#685a69" fill-opacity="0.501961" points="65,176 21,119 8,232" />
<polygon fill="#372416" fill-opacity="0.501961" points="216,210 159,240 239,56" />
<polygon fill="#dfd9db" fill-opacity="0.501961" points="98,156 125,216 109,235" />
<polygon fill="#001037" fill-opacity="0.501961" points="25,-16 266,-2 120,32" />
<polygon fill="#94978f" fill-opacity="0.501961" points="156,252 222,207 183,271" />
<polygon fill="#e0ffff" fill-opacity="0.501961" points="75,188 57,181 54,199" />
<polygon fill="#02090c" fill-opacity="0.501961" points="262,164 180,270 267,204" />
<polygon fill="#4e2e1d" fill-opacity="0.501961" points="88,168 110,223 76,234" />
<polygon fill="#57927f" fill-opacity="0.501961" points="227,58 177,15 130,37" />
<polygon fill="#9f9ba0" fill-opacity="0.501961" points="252,139 271,170 227,181" />
<polygon fill="#9aecff" fill-opacity="0.501961" points="135,246 129,232 157,237" />
<polygon fill="#8d7659" fill-opacity="0.501961" points="198,193 138,223 147,140" />
<polygon fill="#312914" fill-opacity="0.501961" points="150,44 52,23 64,106" />
<polygon fill="#1b2120" fill-opacity="0.501961" points="63,157 81,184 40,179" />
<polygon fill="#89b5a9" fill-opacity="0.501961" points="48,22 71,10 87,18" />
<polygon fill="#204866" fill-opacity="0.501961" points="70,159 83,108 109,104" />
<polygon fill="#f5ffff" fill-opacity="0.501961" points="107,239 114,224 84,235" />
<polygon fill="#fafff0" fill-opacity="0.501961" points="82,147 92,117 91,148" />
<polygon fill="#60c6e3" fill-opacity="0.501961" points="-16,100 -16,60 44,87" />
<polygon fill="#000000" fill-opacity="0.501961" points="-4,233 12,195 1,148" />
<polygon fill="#dff6f3" fill-opacity="0.501961" points="124,81 113,114 102,97" />
<polygon fill="#ffffff" fill-opacity="0.501961" points="33,173 38,176 43,159" />
<polygon fill="#624f38" fill-opacity="0.501961" points="191,211 164,70 204,92" />
<polygon fill="#e4ffff" fill-opacity="0.501961" points="18,153 -5,91 36,91" />
<polygon fill="#282f2e" fill-opacity="0.501961" points="163,113 136,104 131,117" />
<polygon fill="#00082f" fill-opacity="0.501961" points="147,242 77,268 166,263" />
<polygon fill="#ffffcd" fill-opacity="0.501961" points="50,171 48,140 59,149" />
<polygon fill="#0e0620" fill-opacity="0.501961" points="46,146 22,139 32,155" />
<polygon fill="#61383b" fill-opacity="0.501961" points="136,186 131,174 92,180" />
<polygon fill="#2480b2" fill-opacity="0.501961" points="27,216 9,208 -16,266" />
<polygon fill="#74def9" fill-opacity="0.501961" points="31,98 72,137 80,104" />
<polygon fill="#352518" fill-opacity="0.501961" points="109,233 163,211 165,229" />
<polygon fill="#c0b9a9" fill-opacity="0.501961" points="136,220 62,212 126,201" />
<polygon fill="#184e5e" fill-opacity="0.501961" points="69,106 5,66 59,72" />
<polygon fill="#d6a99c" fill-opacity="0.501961" points="10,184 41,187 23,176" />
<polygon fill="#001738" fill-opacity="0.501961" points="270,33 249,-16 78,-2" />
<polygon fill="#d7ffff" fill-opacity="0.501961" points="33,96 30,141 51,120" />
<polygon fill="#00112c" fill-opacity="0.501961" points="13,-16 -16,16 93,12" />
<polygon fill="#979a8d" fill-opacity="0.501961" points="49,140 86,188 58,120" />
<polygon fill="#739a9a" fill-opacity="0.501961" points="57,18 43,49 44,30" />
<polygon fill="#e2eeed" fill-opacity="0.501961" points="97,164 118,173 96,178" />
<polygon fill="#bcd5d5" fill-opacity="0.501961" points="49,197 49,175 79,199" />
<polygon fill="#355240" fill-opacity="0.501961" points="168,51 204,76 244,29" />
<polygon fill="#313634" fill-opacity="0.501961" points="96,163 67,149 103,217" />
<polygon fill="#4478a5" fill-opacity="0.501961" points="27,118 16,136 31,136" />
<polygon fill="#d7fdff" fill-opacity="0.501961" points="66,152 76,124 65,119" />
<polygon fill="#453b26" fill-opacity="0.501961" points="188,271 271,222 244,205" />
<polygon fill="#603524" fill-opacity="0.501961" points="105,219 74,203 69,236" />
<polygon fill="#aab6b1" fill-opacity="0.501961" points="165,248 148,233 161,258" />
<polygon fill="#907d6a" fill-opacity="0.501961" points="129,55 183,85 113,70" />
<polygon fill="#49413e" fill-opacity="0.501961" points="124,88 164,81 127,101" />
<polygon fill="#a59084" fill-opacity="0.501961" points="102,147 82,158 108,104" />
<polygon fill="#5d2d24" fill-opacity="0.501961" points="121,223 115,271 96,271" />
<polygon fill="#bfcdca" fill-opacity="0.501961" points="61,271 4,250 57,217" />
<polygon fill="#c4c5ba" fill-opacity="0.501961" points="107,241 106,202 148,185" />
<polygon fill="#2d5e7b" fill-opacity="0.501961" points="52,128 65,138 58,115" />
<polygon fill="#3ba8ce" fill-opacity="0.501961" points="33,103 51,86 33,84" />
<polygon fill="#d8e6e5" fill-opacity="0.501961" points="84,173 77,175 83,186" />
<polygon fill="#17445b" fill-opacity="0.501961" points="82,99 90,134 74,149" />
<polygon fill="#201f19" fill-opacity="0.501961" points="60,193 95,196 99,186" />
<polygon fill="#ffffff" fill-opacity="0.501961" points="37,189 33,184 43,186" />
<polygon fill="#443013" fill-opacity="0.501961" points="50,212 101,203 14,195" />
<polygon fill="#a55f4a" fill-opacity="0.501961" points="42,198 59,182 21,193" />
<polygon fill="#4a6455" fill-opacity="0.501961" points="117,24 144,49 74,17" />
<polygon fill="#00030d" fill-opacity="0.501961" points="92,109 95,126 102,117" />
<polygon fill="#654438" fill-opacity="0.501961" points="124,151 117,161 99,132" />
<polygon fill="#80735e" fill-opacity="0.501961" points="186,206 133,227 171,102" />
<polygon fill="#7e6e4c" fill-opacity="0.501961" points="259,222 252,271 231,256" />
<polygon fill="#614434" fill-opacity="0.501961" points="82,133 79,169 70,133" />
<polygon fill="#291a1e" fill-opacity="0.501961" points="41,183 33,178 60,163" />
<polygon fill="#cdd1ce" fill-opacity="0.501961" points="102,170 101,179 87,175" />
<polygon fill="#ffffff" fill-opacity="0.501961" points="29,86 5,115 38,123" />
<polygon fill="#d8dbd2" fill-opacity="0.501961" points="59,211 71,216 44,226" />
<polygon fill="#081d3d" fill-opacity="0.501961" points="17,77 70,-11 -16,30" />
<polygon fill="#a3a093" fill-opacity="0.501961" points="174,111 163,152 119,179" />
<polygon fill="#86756f" fill-opacity="0.501961" points="252,129 262,170 230,135" />
</g>
</svg>