<svg xmlns="http://www.w3.org/2000/svg" version="1.1" width="1024" height="1024">
<rect x="0" y="0" width="1024" height="1024" fill="#aa90a6" />
<g transform="scale(4.000000) translate(0.5 0.5)">
<polygon fill="#ffffff" fill-opacity="0.501961" points="158,143 271,196 252,-16" />
<polygon fill="#ffffff" fill-opacity="0.501961" points="-16,100 3,271 110,182" />
<polygon fill="#573849" fill-opacity="0.501961" points="151,271 -16,8 142,-14" />
<polygon fill="#200433" fill-opacity="0.501961" points="98,197 30,271 271,253" />
<polygon fill="#ffffff" fill-opacity="0.501961" points="36,271 -16,163 77,118" />
<polygon fill="#fffeff" fill-opacity="0.501961" points="264,234 154,-11 257,58" />
<polygon fill="#413d4d" fill-opacity="0.501961" points="-12,18 2,128 172,-16" />
<polygon fill="#ab7a91" fill-opacity="0.501961" points="26,84 168,26 177,271" />
<polygon fill="#ffffff" fill-opacity="0.501961" points="82,224 54,239 77,142" />
<polygon fill="#844d87" fill-opacity="0.501961" points="205,151 135,244 271,262" />
<polygon fill="#ffffff" fill-opacity="0.501961" points="72,90 -16,238 39,271" />
<polygon fill="#fff0ff" fill-opacity="0.501961" points="171,170 257,-3 271,144" />
<polygon fill="#24113c" fill-opacity="0.501961" points="73,257 144,259 94,185" />
<polygon fill="#e89ddb" fill-opacity="0.501961" points="255,-16 150,80 208,138" />
<polygon fill="#4c3e4f" fill-opacity="0.501961" points="61,189 37,271 61,247" />
<polygon fill="#ffffff" fill-opacity="0.501961" points="90,205 54,238 78,144" />
<polygon fill="#ffffff" fill-opacity="0.501961" points="-16,151 74,125 36,271" />
<polygon fill="#ffffff" fill-opacity="0.501961" points="191,35 141,23 179,-1" />
<polygon fill="#ddecd2" fill-opacity="0.501961" points="-16,124 63,103 47,130" />
<polygon fill="#2a263f" fill-opacity="0.501961" points="56,204 69,181 67,154" />
<polygon fill="#ba67c1" fill-opacity="0.501961" points="271,198 250,271 197,147" />
<polygon fill="#3a3342" fill-opacity="0.501961" points="82,93 35,91 -16,124" />
<polygon fill="#776f76" fill-opacity="0.501961" points="91,122 103,89 4,143" />
<polygon fill="#3a3844" fill-opacity="0.501961" points="48,75 -16,20 -9,95" />
<polygon fill="#ffffff" fill-opacity="0.501961" points="271,189 266,52 194,145" />
<polygon fill="#bcbdb4" fill-opacity="0.501961" points="73,70 34,98 -16,98" />
<polygon fill="#b77ec3" fill-opacity="0.501961" points="190,11 197,61 247,43" />
<polygon fill="#8d657c" fill-opacity="0.501961" points="120,219 271,249 75,141" />
<polygon fill="#ffffff" fill-opacity="0.501961" points="-16,152 76,124 8,271" />
<polygon fill="#5a455f" fill-opacity="0.501961" points="88,149 63,96 110,123" />
<polygon fill="#bf88a9" fill-opacity="0.501961" points="189,63 174,188 128,37" />
<polygon fill="#4e3f60" fill-opacity="0.501961" points="196,245 129,271 87,199" />
<polygon fill="#ffffff" fill-opacity="0.501961" points="79,226 57,233 68,180" />
<polygon fill="#301738" fill-opacity="0.501961" points="50,239 103,228 52,271" />
<polygon fill="#ffffff" fill-opacity="0.501961" points="183,36 204,74 195,88" />
<polygon fill="#714b7c" fill-opacity="0.501961" points="172,29 114,29 183,50" />
<polygon fill="#f7b8f2" fill-opacity="0.501961" points="255,48 271,0 190,31" />
<polygon fill="#504c62" fill-opacity="0.501961" points="61,177 72,152 73,167" />
<polygon fill="#a27686" fill-opacity="0.501961" points="126,36 164,117 55,108" />
<polygon fill="#ffffff" fill-opacity="0.501961" points="72,165 93,176 86,205" />
<polygon fill="#ffffff" fill-opacity="0.501961" points="163,0 191,16 187,52" />
<polygon fill="#ffffff" fill-opacity="0.501961" points="185,171 207,136 180,132" />
<polygon fill="#b371b2" fill-opacity="0.501961" points="199,152 222,159 178,189" />
<polygon fill="#af7a9b" fill-opacity="0.501961" points="164,106 164,192 105,155" />
<polygon fill="#3e4648" fill-opacity="0.501961" points="-7,148 15,137 -2,140" />
<polygon fill="#543d5b" fill-opacity="0.501961" points="56,64 136,35 52,-16" />
<polygon fill="#594f64" fill-opacity="0.501961" points="63,174 52,218 65,197" />
<polygon fill="#ffffff" fill-opacity="0.501961" points="270,57 200,140 244,184" />
<polygon fill="#66686b" fill-opacity="0.501961" points="89,1 4,-16 -16,51" />
<polygon fill="#caccc4" fill-opacity="0.501961" points="63,100 22,134 68,118" />
<polygon fill="#846586" fill-opacity="0.501961" points="157,-16 85,-11 143,26" />
<polygon fill="#6c5685" fill-opacity="0.501961" points="114,105 145,87 155,125" />
<polygon fill="#47315c" fill-opacity="0.501961" points="166,264 81,222 95,187" />
<polygon fill="#ffffff" fill-opacity="0.501961" points="12,157 48,268 -16,255" />
<polygon fill="#9a7072" fill-opacity="0.501961" points="75,114 122,45 49,68" />
<polygon fill="#fffffe" fill-opacity="0.501961" points="71,214 82,225 49,239" />
<polygon fill="#b17cbc" fill-opacity="0.501961" points="197,60 249,31 191,42" />
<polygon fill="#f9e6fd" fill-opacity="0.501961" points="271,39 193,63 227,101" />
<polygon fill="#a8808c" fill-opacity="0.501961" points="131,222 194,181 113,202" />
<polygon fill="#986497" fill-opacity="0.501961" points="198,25 214,-15 170,-8" />
<polygon fill="#ff95db" fill-opacity="0.501961" points="216,118 197,138 204,69" />
<polygon fill="#ffffff" fill-opacity="0.501961" points="96,187 63,202 75,153" />
<polygon fill="#926494" fill-opacity="0.501961" points="211,256 198,160 271,268" />
<polygon fill="#da94d4" fill-opacity="0.501961" points="271,2 219,-16 210,20" />
<polygon fill="#ce8bf3" fill-opacity="0.501961" points="221,161 242,200 271,208" />
<polygon fill="#cf9cbd" fill-opacity="0.501961" points="172,174 160,69 195,82" />
<polygon fill="#b28196" fill-opacity="0.501961" points="186,54 133,33 105,109" />
<polygon fill="#40334c" fill-opacity="0.501961" points="68,87 -10,110 32,110" />
<polygon fill="#feffff" fill-opacity="0.501961" points="61,179 72,131 -16,150" />
<polygon fill="#442f53" fill-opacity="0.501961" points="98,205 78,217 130,270" />
<polygon fill="#d1cec5" fill-opacity="0.501961" points="-16,123 -12,147 62,105" />
<polygon fill="#755977" fill-opacity="0.501961" points="135,219 212,215 232,271" />
<polygon fill="#524f67" fill-opacity="0.501961" points="70,170 73,149 67,158" />
<polygon fill="#50405f" fill-opacity="0.501961" points="68,117 98,133 102,110" />
<polygon fill="#8e8d9b" fill-opacity="0.501961" points="36,48 64,77 57,88" />
<polygon fill="#fffffd" fill-opacity="0.501961" points="163,12 191,22 150,28" />
<polygon fill="#c1a5ad" fill-opacity="0.501961" points="140,18 165,8 166,18" />
<polygon fill="#804d74" fill-opacity="0.501961" points="129,201 160,175 108,188" />
<polygon fill="#ffffff" fill-opacity="0.501961" points="215,87 271,76 245,188" />
<polygon fill="#98727d" fill-opacity="0.501961" points="71,118 129,183 82,163" />
<polygon fill="#6e5779" fill-opacity="0.501961" points="100,53 123,-16 150,33" />
<polygon fill="#49355b" fill-opacity="0.501961" points="78,240 96,182 103,227" />
<polygon fill="#8c8989" fill-opacity="0.501961" points="51,111 37,106 12,122" />
<polygon fill="#ea9af0" fill-opacity="0.501961" points="242,50 271,14 211,51" />
<polygon fill="#c790ad" fill-opacity="0.501961" points="192,169 176,192 152,143" />
<polygon fill="#3d2546" fill-opacity="0.501961" points="64,233 27,271 124,250" />
<polygon fill="#e088e1" fill-opacity="0.501961" points="243,178 267,181 255,198" />
<polygon fill="#aca49f" fill-opacity="0.501961" points="-9,88 13,100 -3,108" />
<polygon fill="#b478ba" fill-opacity="0.501961" points="208,151 271,228 189,171" />
<polygon fill="#dbc4d3" fill-opacity="0.501961" points="199,45 241,13 186,32" />
<polygon fill="#58495b" fill-opacity="0.501961" points="49,233 55,235 55,214" />
<polygon fill="#ffffff" fill-opacity="0.501961" points="84,210 72,163 56,238" />
<polygon fill="#4d4253" fill-opacity="0.501961" points="19,27 2,91 47,75" />
<polygon fill="#f3eee6" fill-opacity="0.501961" points="13,132 -16,131 39,116" />
<polygon fill="#bf93b7" fill-opacity="0.501961" points="132,104 185,78 202,92" />
<polygon fill="#ffffff" fill-opacity="0.501961" points="42,108 45,110 33,114" />
<polygon fill="#898381" fill-opacity="0.501961" points="52,-16 -16,-3 -15,33" />
<polygon fill="#ffffff" fill-opacity="0.501961" points="41,271 -16,248 50,138" />
<polygon fill="#beb5b0" fill-opacity="0.501961" points="59,113 29,132 -3,131" />
<polygon fill="#ffffff" fill-opacity="0.501961" points="78,157 92,184 85,209" />
</g>
</svg>