<svg xmlns="http://www.w3.org/2000/svg" version="1.1" width="1024" height="1024">
<rect x="0" y="0" width="1024" height="1024" fill="#352524" />
<g transform="scale(4.000000) translate(0.5 0.5)">
<polygon fill="#fff0e1" fill-opacity="0.501961" points="27,26 89,10 118,196" />
<polygon fill="#000000" fill-opacity="0.501961" points="271,0 220,271 67,-7" />
<polygon fill="#a15d5e" fill-opacity="0.501961" points="127,84 203,271 12,164" />
<polygon fill="#ffe1d1" fill-opacity="0.501961" points="30,67 60,3 102,89" />
<polygon fill="#000000" fill-opacity="0.501961" points="0,-16 1,271 48,95" />
<polygon fill="#ff8665" fill-opacity="0.501961" points="22,177 80,115 81,171" />
<polygon fill="#5f373e" fill-opacity="0.501961" points="35,226 125,84 183,261" />
<polygon fill="#000000" fill-opacity="0.501961" points="224,163 38,-16 215,-16" />
<polygon fill="#ecd4b3" fill-opacity="0.501961" points="152,191 190,248 165,172" />
<polygon fill="#000000" fill-opacity="0.501961" points="58,270 -5,263 -16,46" />
<polygon fill="#00183b" fill-opacity="0.501961" points="102,130 54,204 178,100" />
<polygon fill="#e96c4b" fill-opacity="0.501961" points="126,180 45,223 150,125" />
<polygon fill="#ffd1c7" fill-opacity="0.501961" points="101,78 100,46 44,17" />
<polygon fill="#001030" fill-opacity="0.501961" points="127,213 191,133 70,219" />
<polygon fill="#dc5d3e" fill-opacity="0.501961" points="159,194 134,240 84,232" />
<polygon fill="#000000" fill-opacity="0.501961" points="16,179 39,-16 -16,-2" />
<polygon fill="#000000" fill-opacity="0.501961" points="88,88 219,-16 201,102" />
<polygon fill="#864e23" fill-opacity="0.501961" points="213,20 241,3 241,74" />
<polygon fill="#000000" fill-opacity="0.501961" points="158,6 252,271 172,202" />
<polygon fill="#fff6da" fill-opacity="0.501961" points="98,113 95,93 57,95" />
<polygon fill="#39365a" fill-opacity="0.501961" points="52,99 17,160 92,112" />
<polygon fill="#000816" fill-opacity="0.501961" points="161,201 124,262 173,236" />
<polygon fill="#495a68" fill-opacity="0.501961" points="271,217 235,224 222,154" />
<polygon fill="#ef7154" fill-opacity="0.501961" points="37,204 50,221 89,206" />
<polygon fill="#e36a4a" fill-opacity="0.501961" points="55,144 22,150 26,175" />
<polygon fill="#c7664e" fill-opacity="0.501961" points="47,172 61,126 135,108" />
<polygon fill="#0d2759" fill-opacity="0.501961" points="95,191 29,209 49,174" />
<polygon fill="#000000" fill-opacity="0.501961" points="134,115 212,271 191,-16" />
<polygon fill="#fec29c" fill-opacity="0.501961" points="66,8 83,28 31,31" />
<polygon fill="#000000" fill-opacity="0.501961" points="236,80 33,-2 204,-16" />
<polygon fill="#cbb38e" fill-opacity="0.501961" points="191,271 168,218 203,262" />
<polygon fill="#9e7a68" fill-opacity="0.501961" points="63,93 40,31 30,62" />
<polygon fill="#000000" fill-opacity="0.501961" points="-4,199 58,81 -10,56" />
<polygon fill="#050000" fill-opacity="0.501961" points="234,176 271,190 255,47" />
<polygon fill="#718189" fill-opacity="0.501961" points="110,130 117,108 95,79" />
<polygon fill="#c05740" fill-opacity="0.501961" points="98,220 94,248 154,222" />
<polygon fill="#000000" fill-opacity="0.501961" points="53,266 -16,271 10,124" />
<polygon fill="#000000" fill-opacity="0.501961" points="11,-12 -5,43 45,60" />
<polygon fill="#182341" fill-opacity="0.501961" points="109,114 31,125 61,106" />
<polygon fill="#f9cfcb" fill-opacity="0.501961" points="98,80 50,14 63,83" />
<polygon fill="#000000" fill-opacity="0.501961" points="113,97 97,41 254,-16" />
<polygon fill="#d36d58" fill-opacity="0.501961" points="120,185 103,192 63,155" />
<polygon fill="#bb8e39" fill-opacity="0.501961" points="240,70 248,53 230,57" />
<polygon fill="#10294e" fill-opacity="0.501961" points="73,144 23,145 34,127" />
<polygon fill="#e4c7b5" fill-opacity="0.501961" points="172,189 154,174 172,224" />
<polygon fill="#863626" fill-opacity="0.501961" points="133,238 161,210 154,172" />
<polygon fill="#021933" fill-opacity="0.501961" points="132,267 163,229 84,250" />
<polygon fill="#c46452" fill-opacity="0.501961" points="51,233 80,229 96,213" />
<polygon fill="#fff3e5" fill-opacity="0.501961" points="47,78 41,63 34,62" />
<polygon fill="#000000" fill-opacity="0.501961" points="1,25 86,1 -16,-16" />
<polygon fill="#020a03" fill-opacity="0.501961" points="183,239 170,242 171,271" />
<polygon fill="#d9aca3" fill-opacity="0.501961" points="94,39 102,63 38,37" />
<polygon fill="#0a1423" fill-opacity="0.501961" points="164,174 129,177 150,150" />
<polygon fill="#000000" fill-opacity="0.501961" points="227,-14 271,99 261,2" />
<polygon fill="#bb5d4a" fill-opacity="0.501961" points="67,218 33,213 107,186" />
<polygon fill="#a84528" fill-opacity="0.501961" points="144,110 116,109 124,90" />
<polygon fill="#8f3415" fill-opacity="0.501961" points="172,224 171,257 145,259" />
<polygon fill="#c15f4e" fill-opacity="0.501961" points="83,233 72,243 52,244" />
<polygon fill="#b18677" fill-opacity="0.501961" points="43,62 68,41 38,39" />
<polygon fill="#020200" fill-opacity="0.501961" points="186,244 246,269 188,54" />
<polygon fill="#021a3b" fill-opacity="0.501961" points="94,230 84,271 20,271" />
<polygon fill="#1a2847" fill-opacity="0.501961" points="143,105 91,143 79,187" />
<polygon fill="#a94930" fill-opacity="0.501961" points="117,187 149,153 146,131" />
<polygon fill="#5a4f49" fill-opacity="0.501961" points="65,90 43,75 91,91" />
<polygon fill="#d17360" fill-opacity="0.501961" points="85,170 52,174 71,132" />
<polygon fill="#cd6850" fill-opacity="0.501961" points="88,174 115,159 87,200" />
<polygon fill="#ca8e73" fill-opacity="0.501961" points="46,111 73,91 60,88" />
<polygon fill="#bf593f" fill-opacity="0.501961" points="86,115 55,132 120,129" />
<polygon fill="#000000" fill-opacity="0.501961" points="-16,13 -16,208 55,90" />
<polygon fill="#61331c" fill-opacity="0.501961" points="214,37 245,55 246,22" />
<polygon fill="#000000" fill-opacity="0.501961" points="119,71 262,-16 64,-2" />
<polygon fill="#000000" fill-opacity="0.501961" points="-16,261 67,271 8,163" />
<polygon fill="#082040" fill-opacity="0.501961" points="88,219 51,230 35,219" />
<polygon fill="#1a2a52" fill-opacity="0.501961" points="26,178 100,171 36,195" />
<polygon fill="#8b6149" fill-opacity="0.501961" points="35,17 31,33 53,15" />
<polygon fill="#efd3b5" fill-opacity="0.501961" points="93,252 102,271 49,271" />
<polygon fill="#16294b" fill-opacity="0.501961" points="123,216 148,179 85,201" />
<polygon fill="#a6856e" fill-opacity="0.501961" points="170,226 168,182 197,264" />
<polygon fill="#c5a191" fill-opacity="0.501961" points="110,116 81,92 103,94" />
<polygon fill="#292e4a" fill-opacity="0.501961" points="59,97 33,148 83,111" />
<polygon fill="#21353e" fill-opacity="0.501961" points="249,271 271,162 231,216" />
<polygon fill="#170e02" fill-opacity="0.501961" points="249,186 182,79 271,63" />
<polygon fill="#fbcdaf" fill-opacity="0.501961" points="54,42 53,14 38,33" />
<polygon fill="#011528" fill-opacity="0.501961" points="139,243 162,204 168,216" />
<polygon fill="#525057" fill-opacity="0.501961" points="221,159 246,226 248,188" />
<polygon fill="#1c2334" fill-opacity="0.501961" points="97,140 145,103 142,135" />
<polygon fill="#ffd4bd" fill-opacity="0.501961" points="61,98 91,95 94,112" />
<polygon fill="#000000" fill-opacity="0.501961" points="135,92 106,32 99,85" />
<polygon fill="#423a35" fill-opacity="0.501961" points="47,69 30,51 34,34" />
<polygon fill="#c58f69" fill-opacity="0.501961" points="75,15 47,19 60,8" />
<polygon fill="#f7d6c5" fill-opacity="0.501961" points="84,42 101,66 92,38" />
<polygon fill="#af7979" fill-opacity="0.501961" points="74,39 92,68 92,54" />
<polygon fill="#000000" fill-opacity="0.501961" points="49,77 61,102 34,76" />
<polygon fill="#252f54" fill-opacity="0.501961" points="94,138 113,157 77,159" />
<polygon fill="#000000" fill-opacity="0.501961" points="118,20 108,-16 77,31" />
<polygon fill="#f1ccbf" fill-opacity="0.501961" points="63,83 43,49 98,76" />
<polygon fill="#b75640" fill-opacity="0.501961" points="36,214 45,222 78,198" />
<polygon fill="#576176" fill-opacity="0.501961" points="111,112 121,139 102,115" />
<polygon fill="#fed2c3" fill-opacity="0.501961" points="37,68 39,61 30,56" />
<polygon fill="#bc624e" fill-opacity="0.501961" points="68,122 104,120 72,164" />
</g>
</svg>