<svg xmlns="http://www.w3.org/2000/svg" version="1.1" width="1024" height="1024">
<rect x="0" y="0" width="1024" height="1024" fill="#595378" />
<g transform="scale(4.000000) translate(0.5 0.5)">
<polygon fill="#bfc0ff" fill-opacity="0.501961" points="41,-16 145,271 -16,252" />
<polygon fill="#020000" fill-opacity="0.501961" points="255,-16 102,200 255,271" />
<polygon fill="#0e0013" fill-opacity="0.501961" points="271,219 110,108 170,-16" />
<polygon fill="#b0b0ed" fill-opacity="0.501961" points="119,51 77,-16 -16,126" />
<polygon fill="#473159" fill-opacity="0.501961" points="93,-16 271,4 188,113" />
<polygon fill="#6f6ea3" fill-opacity="0.501961" points="-16,78 -15,165 195,41" />
<polygon fill="#cac7f5" fill-opacity="0.501961" points="111,170 -16,228 34,271" />
<polygon fill="#736fa8" fill-opacity="0.501961" points="106,98 -16,189 141,231" />
<polygon fill="#484155" fill-opacity="0.501961" points="127,249 222,161 216,271" />
<polygon fill="#fffeff" fill-opacity="0.501961" points="-4,90 42,92 -9,125" />
<polygon fill="#ff0758" fill-opacity="0.501961" points="156,64 220,65 207,80" />
<polygon fill="#d9d6ff" fill-opacity="0.501961" points="50,155 -15,159 78,116" />
<polygon fill="#000000" fill-opacity="0.501961" points="22,79 6,92 16,28" />
<polygon fill="#000000" fill-opacity="0.501961" points="229,137 176,171 122,63" />
<polygon fill="#ffffff" fill-opacity="0.501961" points="63,190 109,187 25,217" />
<polygon fill="#413d69" fill-opacity="0.501961" points="70,176 5,162 -16,206" />
<polygon fill="#131016" fill-opacity="0.501961" points="271,250 156,230 125,271" />
<polygon fill="#1c2333" fill-opacity="0.501961" points="175,63 128,17 263,-16" />
<polygon fill="#8c8dcc" fill-opacity="0.501961" points="115,6 20,55 28,-16" />
<polygon fill="#6d6485" fill-opacity="0.501961" points="126,220 244,204 213,181" />
<polygon fill="#231f40" fill-opacity="0.501961" points="38,112 21,139 -10,128" />
<polygon fill="#6569ac" fill-opacity="0.501961" points="106,52 190,84 84,1" />
<polygon fill="#151420" fill-opacity="0.501961" points="81,209 184,185 158,215" />
<polygon fill="#70485f" fill-opacity="0.501961" points="116,107 165,134 119,198" />
<polygon fill="#d4d0fa" fill-opacity="0.501961" points="107,48 32,46 48,71" />
<polygon fill="#918fcd" fill-opacity="0.501961" points="132,271 -10,215 148,214" />
<polygon fill="#360000" fill-opacity="0.501961" points="190,83 224,68 244,126" />
<polygon fill="#8f8ecd" fill-opacity="0.501961" points="6,93 -16,55 15,-16" />
<polygon fill="#565487" fill-opacity="0.501961" points="17,64 36,94 101,75" />
<polygon fill="#e5e1ff" fill-opacity="0.501961" points="48,237 96,271 -9,255" />
<polygon fill="#8786c2" fill-opacity="0.501961" points="127,186 92,86 45,172" />
<polygon fill="#eee8ff" fill-opacity="0.501961" points="51,199 30,216 -16,213" />
<polygon fill="#8d8dcd" fill-opacity="0.501961" points="97,68 106,112 128,62" />
<polygon fill="#5d5c99" fill-opacity="0.501961" points="142,213 88,198 25,220" />
<polygon fill="#010501" fill-opacity="0.501961" points="212,271 251,266 271,142" />
<polygon fill="#00000a" fill-opacity="0.501961" points="133,170 140,199 215,137" />
<polygon fill="#535180" fill-opacity="0.501961" points="45,150 -16,197 53,199" />
<polygon fill="#4c4c73" fill-opacity="0.501961" points="223,72 271,14 217,3" />
<polygon fill="#a0abf8" fill-opacity="0.501961" points="149,6 125,-9 139,12" />
<polygon fill="#635978" fill-opacity="0.501961" points="174,197 214,180 164,271" />
<polygon fill="#bdbaee" fill-opacity="0.501961" points="18,150 -16,187 -16,123" />
<polygon fill="#7a81f6" fill-opacity="0.501961" points="179,83 154,67 182,74" />
<polygon fill="#311727" fill-opacity="0.501961" points="126,168 141,151 112,139" />
<polygon fill="#4f4570" fill-opacity="0.501961" points="271,147 254,69 229,83" />
<polygon fill="#000000" fill-opacity="0.501961" points="154,206 202,181 168,182" />
<polygon fill="#aaa8e0" fill-opacity="0.501961" points="82,21 36,16 113,-16" />
<polygon fill="#000000" fill-opacity="0.501961" points="134,268 170,221 160,261" />
<polygon fill="#6968a1" fill-opacity="0.501961" points="48,110 75,149 -6,111" />
<polygon fill="#e6dfff" fill-opacity="0.501961" points="19,85 -16,111 37,100" />
<polygon fill="#e2dcff" fill-opacity="0.501961" points="115,184 86,183 60,206" />
<polygon fill="#131330" fill-opacity="0.501961" points="127,129 125,48 169,116" />
<polygon fill="#ada9e0" fill-opacity="0.501961" points="-16,233 60,252 148,221" />
<polygon fill="#444172" fill-opacity="0.501961" points="76,102 65,77 106,59" />
<polygon fill="#a09cd9" fill-opacity="0.501961" points="81,104 14,107 62,87" />
<polygon fill="#070c03" fill-opacity="0.501961" points="210,156 271,244 237,136" />
<polygon fill="#1e1d31" fill-opacity="0.501961" points="239,-1 135,33 156,-1" />
<polygon fill="#706fa6" fill-opacity="0.501961" points="48,50 70,8 19,30" />
<polygon fill="#f2ecff" fill-opacity="0.501961" points="20,153 29,140 59,147" />
<polygon fill="#50548c" fill-opacity="0.501961" points="78,46 140,7 141,27" />
<polygon fill="#c69dcf" fill-opacity="0.501961" points="106,131 124,121 112,139" />
<polygon fill="#8b89c3" fill-opacity="0.501961" points="71,134 126,167 54,198" />
<polygon fill="#eee2f0" fill-opacity="0.501961" points="150,66 139,69 143,62" />
<polygon fill="#161a33" fill-opacity="0.501961" points="3,51 -4,101 -16,58" />
<polygon fill="#403a53" fill-opacity="0.501961" points="249,208 195,263 193,196" />
<polygon fill="#27294c" fill-opacity="0.501961" points="30,17 11,47 19,1" />
<polygon fill="#000000" fill-opacity="0.501961" points="252,180 205,181 238,190" />
<polygon fill="#515188" fill-opacity="0.501961" points="92,107 107,110 100,163" />
<polygon fill="#6f6da5" fill-opacity="0.501961" points="138,56 84,84 71,146" />
<polygon fill="#716fa9" fill-opacity="0.501961" points="120,214 101,189 98,240" />
<polygon fill="#8683b9" fill-opacity="0.501961" points="35,74 23,25 17,93" />
<polygon fill="#040a16" fill-opacity="0.501961" points="22,59 5,92 19,26" />
<polygon fill="#c80c45" fill-opacity="0.501961" points="179,62 193,80 228,69" />
<polygon fill="#8a7002" fill-opacity="0.501961" points="180,88 193,107 204,108" />
<polygon fill="#303980" fill-opacity="0.501961" points="147,52 186,106 149,78" />
<polygon fill="#8380b8" fill-opacity="0.501961" points="1,201 28,175 41,184" />
<polygon fill="#0f0000" fill-opacity="0.501961" points="252,108 226,116 180,73" />
<polygon fill="#c1bdea" fill-opacity="0.501961" points="63,75 31,68 72,32" />
<polygon fill="#8c6387" fill-opacity="0.501961" points="123,131 141,155 153,133" />
<polygon fill="#363759" fill-opacity="0.501961" points="223,128 242,86 243,141" />
<polygon fill="#3a3341" fill-opacity="0.501961" points="162,216 135,184 158,247" />
<polygon fill="#423b51" fill-opacity="0.501961" points="184,174 241,168 225,181" />
<polygon fill="#7575b0" fill-opacity="0.501961" points="101,271 135,206 152,229" />
<polygon fill="#8b87c9" fill-opacity="0.501961" points="60,34 126,54 80,63" />
<polygon fill="#423e5c" fill-opacity="0.501961" points="144,47 232,8 232,67" />
<polygon fill="#1d1c36" fill-opacity="0.501961" points="138,185 129,219 116,208" />
<polygon fill="#706684" fill-opacity="0.501961" points="155,248 157,226 168,216" />
<polygon fill="#000208" fill-opacity="0.501961" points="130,110 170,99 235,161" />
<polygon fill="#252d54" fill-opacity="0.501961" points="132,21 107,15 116,-16" />
<polygon fill="#928fcb" fill-opacity="0.501961" points="12,124 22,104 -4,117" />
<polygon fill="#4a4978" fill-opacity="0.501961" points="52,191 34,205 19,187" />
<polygon fill="#010000" fill-opacity="0.501961" points="138,271 156,247 159,217" />
<polygon fill="#040a16" fill-opacity="0.501961" points="143,61 124,80 129,65" />
<polygon fill="#171727" fill-opacity="0.501961" points="161,37 139,23 137,48" />
<polygon fill="#12192d" fill-opacity="0.501961" points="-3,-10 3,30 -16,26" />
<polygon fill="#9896d0" fill-opacity="0.501961" points="84,164 13,157 88,140" />
<polygon fill="#9f9bd4" fill-opacity="0.501961" points="44,225 66,260 78,205" />
<polygon fill="#000000" fill-opacity="0.501961" points="179,86 161,72 158,78" />
<polygon fill="#6e0010" fill-opacity="0.501961" points="195,79 213,92 223,66" />
<polygon fill="#66659d" fill-opacity="0.501961" points="140,26 96,14 67,29" />
<polygon fill="#4d4975" fill-opacity="0.501961" points="-16,175 29,176 65,154" />
</g>
</svg>